<?xml version="1.0" encoding="utf-8"?>
<!-- Generator: Adobe Illustrator 21.1.0, SVG Export Plug-In . SVG Version: 6.00 Build 0)  -->
<svg version="1.1" id="Calque_1" xmlns="http://www.w3.org/2000/svg" xmlns:xlink="http://www.w3.org/1999/xlink" x="0px" y="0px"
	 viewBox="0 0 500 500" style="enable-background:new 0 0 500 500;" xml:space="preserve">
<style type="text/css">
	.st0{fill:#16A085;}
</style>
<g id="g3027" transform="matrix(1,0,0,-1,121.49153,1285.4237)">
	<path id="path3029" inkscape:connector-curvature="0" class="st0" d="M295.1,1035.4c0,22.6-4.3,44.2-13.2,64.7
		s-20.7,38.3-35.6,53.3c-14.8,15-32.8,26.9-53.3,35.6c-20.5,8.9-42.2,13.2-64.7,13.2s-44.2-4.3-64.7-13.2
		c-20.5-8.9-38.3-20.7-53.3-35.6s-26.9-32.8-35.6-53.3s-13.2-42.2-13.2-64.7c0-22.6,4.3-44.2,13.2-64.7s20.7-38.3,35.6-53.3
		c14.8-15,32.8-26.9,53.3-35.6c20.5-8.7,42.2-13.2,64.7-13.2s44.2,4.3,64.7,13.2s38.3,20.7,53.3,35.6c15,14.8,26.9,32.8,35.6,53.3
		C290.8,991.4,295.1,1012.9,295.1,1035.4z M378.5,1035.4c0-45.4-11.2-87.3-33.5-125.6s-52.6-68.6-90.9-90.9s-80.2-33.5-125.6-33.5
		S41.2,796.6,2.9,818.9c-38.3,22.3-68.6,52.6-90.9,90.9s-33.5,80.2-33.5,125.6c0,45.4,11.2,87.3,33.5,125.6
		c22.3,38.3,52.6,68.6,90.9,90.9s80.2,33.5,125.6,33.5s87.3-11.2,125.6-33.5s68.6-52.6,90.9-90.9S378.5,1081,378.5,1035.4z"/>
</g>
</svg>
