<?xml version="1.0" encoding="utf-8"?>
<!-- Generator: Adobe Illustrator 21.1.0, SVG Export Plug-In . SVG Version: 6.00 Build 0)  -->
<svg version="1.1" id="Calque_1" xmlns="http://www.w3.org/2000/svg" xmlns:xlink="http://www.w3.org/1999/xlink" x="0px" y="0px"
	 viewBox="0 0 500 500" style="enable-background:new 0 0 500 500;" xml:space="preserve">
<style type="text/css">
	.st0{fill:#16A085;}
	.st1{fill:#727272;}
</style>
<g>
	<g>
		<rect x="28.3" y="1.3" class="st0" width="45.2" height="497.5"/>
		<path class="st0" d="M72.3,2.5v495.1H29.5V2.5H72.3 M74.7,0.1H27.1V500h47.6V0.1L74.7,0.1z"/>
	</g>
</g>
<g>
	<g>
		<rect x="128.3" y="51" class="st1" width="45.2" height="398"/>
		<path class="st1" d="M172.3,52v396.1h-42.8V52H172.3 M174.7,50.1h-47.6V450h47.6V50.1L174.7,50.1z"/>
	</g>
</g>
<g>
	<g>
		<rect x="228.3" y="100.8" class="st0" width="45.2" height="298.5"/>
		<path class="st0" d="M272.3,101.5v297.1h-42.8V101.5H272.3 M274.7,100.1h-47.6V400h47.6V100.1L274.7,100.1z"/>
	</g>
</g>
<g>
	<g>
		<rect x="328.2" y="150.5" class="st1" width="45.2" height="199"/>
		<path class="st1" d="M372.3,151v198.1h-42.8V151H372.3 M374.6,150.1H327v200h47.6V150.1L374.6,150.1z"/>
	</g>
</g>
<g>
	<g>
		<rect x="428.2" y="202.7" class="st0" width="45.2" height="94.7"/>
		<path class="st0" d="M472.2,202.9v94.3h-42.8v-94.3L472.2,202.9 M474.6,202.4H427v95.2h47.6V202.4L474.6,202.4z"/>
	</g>
</g>
</svg>
