<?xml version="1.0" encoding="utf-8"?>
<!-- Generator: Adobe Illustrator 21.1.0, SVG Export Plug-In . SVG Version: 6.00 Build 0)  -->
<svg version="1.1" id="Calque_1" xmlns="http://www.w3.org/2000/svg" xmlns:xlink="http://www.w3.org/1999/xlink" x="0px" y="0px"
	 viewBox="0 0 500 500" style="enable-background:new 0 0 500 500;" xml:space="preserve">
<style type="text/css">
	.st0{fill:#16A085;}
</style>
<g id="surface1">
	<path class="st0" d="M442.6,0.2L167.8,37.7c-25,2.5-42.5,25-42.5,50V345c-12.5-2.5-25-2.5-37.5,0c-47.5,12.5-87.4,55-87.4,97.4
		s40,67.4,87.4,55s87.4-55,87.4-97.4V185L450,147.6v169.8c-12.5-2.5-25,0-37.5,2.5c-47.5,12.5-87.4,55-87.4,97.4s40,67.4,87.4,55
		c47.5-12.5,87.4-55,87.4-97.4V50.1C500,20.2,472.5-2.3,442.6,0.2z"/>
</g>
</svg>
