<?xml version="1.0" encoding="utf-8"?>
<!-- Generator: Adobe Illustrator 21.1.0, SVG Export Plug-In . SVG Version: 6.00 Build 0)  -->
<svg version="1.1" id="Calque_1" xmlns="http://www.w3.org/2000/svg" xmlns:xlink="http://www.w3.org/1999/xlink" x="0px" y="0px"
	 viewBox="0 0 500 500" style="enable-background:new 0 0 500 500;" xml:space="preserve">
<style type="text/css">
	.st0{fill:#727272;}
	.st1{fill:#16A085;}
</style>
<g id="surface1">
	<path class="st0" d="M229.8,0v103.5h42.9V45.5c106.1,10.1,186.9,96,186.9,204.5c0,116.2-93.4,209.6-209.6,209.6
		S40.4,366.2,40.4,250c0-60.6,22.7-108.6,63.1-146.5L75.8,70.7C27.8,116.2,0,179.3,0,250c0,138.9,111.1,250,250,250
		s250-111.1,250-250S388.9,0,250,0H229.8z"/>
</g>
<path class="st1" d="M116.2,116.2l93.4,141.4c2.5,20.2,20.2,35.4,40.4,35.4c22.7,0,42.9-17.7,42.9-42.9c0-20.2-15.2-37.9-35.4-40.4
	L116.2,116.2z"/>
</svg>
