<?xml version="1.0" encoding="utf-8"?>
<!-- Generator: Adobe Illustrator 21.1.0, SVG Export Plug-In . SVG Version: 6.00 Build 0)  -->
<svg version="1.1" id="Calque_1" xmlns="http://www.w3.org/2000/svg" xmlns:xlink="http://www.w3.org/1999/xlink" x="0px" y="0px"
	 viewBox="0 0 16 16" style="enable-background:new 0 0 16 16;" xml:space="preserve">
<style type="text/css">
	.st0{fill:#FFFFFF;}
	.st1{fill:#727272;}
</style>
<g id="surface1">
	<path class="st0" d="M5.5,12.5v-12h6.4l3.6,3.7v8.3H5.5z"/>
	<path class="st1" d="M11.7,1L15,4.4V12H6V1H11.7 M12.1,0H5v13h11V4L12.1,0z"/>
	<path class="st0" d="M11.5,4.5v-4h0.3l3.7,3.7v0.3H11.5z"/>
	<path class="st1" d="M12,1.4L14.6,4H12V1.4 M12,0h-1v5h5V4L12,0z"/>
	<path class="st0" d="M0.5,15.5v-12h6.4l3.6,3.7v8.3H0.5z"/>
	<path class="st1" d="M6.7,4L10,7.4V15H1V4H6.7 M7.1,3H0v13h11V7L7.1,3z"/>
	<path class="st0" d="M6.5,7.5v-4h0.3l3.7,3.7v0.3H6.5z"/>
	<path class="st1" d="M7,4.4L9.6,7H7V4.4 M7,3H6v5h5V7L7,3z"/>
</g>
</svg>
