<?xml version="1.0" encoding="utf-8"?>
<!-- Generator: Adobe Illustrator 21.1.0, SVG Export Plug-In . SVG Version: 6.00 Build 0)  -->
<svg version="1.1" id="Calque_1" xmlns="http://www.w3.org/2000/svg" xmlns:xlink="http://www.w3.org/1999/xlink" x="0px" y="0px"
	 viewBox="0 0 16 16" style="enable-background:new 0 0 16 16;" xml:space="preserve">
<style type="text/css">
	.st0{fill:#727272;}
</style>
<g id="surface1">
	<path class="st0" d="M7.4,0C6.7,0,6.1,0.5,5.9,1.2H1.5v13.6h4.7V16h8.3V6.5h-1.2V1.2H8.9C8.7,0.5,8.2,0,7.4,0z M7.4,1.2
		C7.7,1.2,8,1.4,8,1.8v0.6h1.8v1.2H5V2.4h1.8V1.8C6.8,1.4,7.1,1.2,7.4,1.2z M2.7,2.4h1.2v2.4H11V2.4h1.2v4.1H6.2v7.1H2.7V2.4z
		 M7.4,7.7h5.9v7.1H7.4V7.7z"/>
</g>
</svg>
