<?xml version="1.0" encoding="utf-8"?>
<!-- Generator: Adobe Illustrator 21.1.0, SVG Export Plug-In . SVG Version: 6.00 Build 0)  -->
<svg version="1.1" id="Calque_1" xmlns="http://www.w3.org/2000/svg" xmlns:xlink="http://www.w3.org/1999/xlink" x="0px" y="0px"
	 viewBox="0 0 500 500" style="enable-background:new 0 0 500 500;" xml:space="preserve">
<style type="text/css">
	.st0{fill:#727272;}
	.st1{fill:#16A085;}
</style>
<g id="surface1">
	<path class="st0" d="M215.3,0c-43.1,0-79.2,36.1-79.2,79.2V125c0,43.1,36.1,79.2,79.2,79.2s79.2-36.1,79.2-79.2V79.2
		C295.8,36.1,259.7,0,215.3,0z M420.8,0c-43.1,0-79.2,36.1-79.2,79.2V125c0,43.1,36.1,79.2,79.2,79.2S500,168.1,500,125V79.2
		C500,36.1,463.9,0,420.8,0z M215.3,45.8c19.4,0,34.7,15.3,34.7,34.7V125c0,19.4-15.3,34.7-34.7,34.7s-34.7-15.3-34.7-34.7V79.2
		C181.9,61.1,197.2,45.8,215.3,45.8z M420.8,45.8c19.4,0,34.7,15.3,34.7,34.7V125c0,19.4-15.3,34.7-34.7,34.7
		c-19.4,0-34.7-15.3-34.7-34.7V79.2C386.1,61.1,401.4,45.8,420.8,45.8z M79.2,295.8C36.1,295.8,0,331.9,0,375v45.8
		C0,463.9,36.1,500,79.2,500s79.2-36.1,79.2-79.2V375C159.7,331.9,123.6,295.8,79.2,295.8z M284.7,295.8
		c-43.1,0-79.2,36.1-79.2,79.2v45.8c0,43.1,36.1,79.2,79.2,79.2s79.2-36.1,79.2-79.2V375C363.9,331.9,327.8,295.8,284.7,295.8z
		 M79.2,340.3c19.4,0,34.7,15.3,34.7,34.7v45.8c0,19.4-15.3,34.7-34.7,34.7s-34.7-15.3-34.7-34.7V375
		C45.8,355.6,61.1,340.3,79.2,340.3z M284.7,340.3c19.4,0,34.7,15.3,34.7,34.7v45.8c0,19.4-15.3,34.7-34.7,34.7
		c-19.4,0-34.7-15.3-34.7-34.7V375C250,355.6,265.3,340.3,284.7,340.3z"/>
</g>
<polygon class="st1" points="0,0 0,45.8 22.2,45.8 22.2,205.6 68.1,205.6 68.1,0 "/>
<polygon class="st1" points="409.7,295.8 409.7,341.7 431.9,341.7 431.9,500 477.8,500 477.8,295.8 "/>
</svg>
