<?xml version="1.0" encoding="utf-8"?>
<!-- Generator: Adobe Illustrator 21.1.0, SVG Export Plug-In . SVG Version: 6.00 Build 0)  -->
<svg version="1.1" id="Calque_1" xmlns="http://www.w3.org/2000/svg" xmlns:xlink="http://www.w3.org/1999/xlink" x="0px" y="0px"
	 viewBox="0 0 500 500" style="enable-background:new 0 0 500 500;" xml:space="preserve">
<style type="text/css">
	.st0{fill:#727272;}
	.st1{fill:#16A085;}
</style>
<g id="surface1">
	<path class="st0" d="M78.4,53.9c-33.1,0-61.3,28.2-61.3,61.3v269.6c0,33.1,28.2,61.3,61.3,61.3h88.2l-19.6,19.6l34.3,34.3
		l61.3-61.3l17.2-17.2l-17.2-17.2l-61.3-61.3l-34.3,34.3l19.6,19.6H78.4c-7.4,0-12.3-4.9-12.3-12.3V115.2c0-7.4,4.9-12.3,12.3-12.3
		h147.1v-49H78.4z"/>
</g>
<path class="st1" d="M318.6,0l-61.3,61.3l-17.2,17.2l17.2,17.2l61.3,61.3l34.3-34.3l-19.6-19.6h88.2c7.4,0,12.3,4.9,12.3,12.3v269.6
	c0,7.4-4.9,12.3-12.3,12.3H274.5v49h147.1c33.1,0,61.3-28.2,61.3-61.3V115.2c0-33.1-28.2-61.3-61.3-61.3h-88.2l19.6-19.6L318.6,0z"
	/>
</svg>
