<?xml version="1.0" encoding="utf-8"?>
<!-- Generator: Adobe Illustrator 21.1.0, SVG Export Plug-In . SVG Version: 6.00 Build 0)  -->
<svg version="1.1" id="Calque_1" xmlns="http://www.w3.org/2000/svg" xmlns:xlink="http://www.w3.org/1999/xlink" x="0px" y="0px"
	 viewBox="0 0 500 500" style="enable-background:new 0 0 500 500;" xml:space="preserve">
<style type="text/css">
	.st0{fill:#16A085;}
	.st1{fill:#727272;}
</style>
<g id="surface1">
	<path class="st0" d="M84,135c-13,0-29,4-33,25c-1,7-40,214-51,274v1c0,17,13,30,30,30h390c16,0,29-13,30-29l50-269v-2
		c0-17-13-30-30-30C470,135,84,135,84,135z"/>
</g>
<path class="st1" d="M30,35C13,35,0,48,0,65v261c15-78,31-165,32-170c5-26,24-41,52-41h386v-10c0-17-13-30-30-30H180
	c-3-1-8-10-12-15c-7-12-15-25-28-25H30z"/>
</svg>
