<?xml version="1.0" encoding="utf-8"?>
<!-- Generator: Adobe Illustrator 21.1.0, SVG Export Plug-In . SVG Version: 6.00 Build 0)  -->
<svg version="1.1" id="Calque_1" xmlns="http://www.w3.org/2000/svg" xmlns:xlink="http://www.w3.org/1999/xlink" x="0px" y="0px"
	 viewBox="0 0 500 500" style="enable-background:new 0 0 500 500;" xml:space="preserve">
<style type="text/css">
	.st0{fill:#16A085;}
</style>
<g>
	<path class="st0" d="M164.9,252.1c1.1-1.1,1.1-2.8,0-3.9L1.9,85.8c-2.2-2.2-2.2-3.3,0-5.5c26-26,52-52,78-78c3-3,3-3,6.1,0
		C140,56.2,193.7,109.9,247.3,163.9c1.9,1.9,3,2.2,5.3,0C306.5,109.9,360.5,56,414.4,1.7c1.9-1.9,2.8-2.2,5-0.3
		c26.3,26.6,52.8,52.8,79.1,79.1c1.7,1.7,1.9,2.5,0,4.4C444.6,139,390.7,192.9,336.4,246.9c-1.7,1.7-1.7,4.1,0,5.8
		C390.4,306.3,444.1,360.3,498,414c2.2,2.2,2.2,3.3,0,5.5c-26,25.7-52,51.7-77.7,77.7c-0.8,0.8-1.9,1.4-2.2,2.8c-0.6,0-1.4,0-1.9,0
		c-0.3-1.1-1.1-1.7-1.9-2.2c-53.9-53.9-107.9-107.9-161.6-161.8c-1.9-1.9-3-2.2-5.3,0c-27.9,28.2-56.2,56.2-84.4,84.4
		c-25.5,25.5-50.9,50.9-76.6,76.6c-2.8,2.8-4.1,2.8-6.6,0.6c-23.8-23.8-52-52-78-78c-2.5-2.2-1.9-3.6,0-5.5L164.9,252.1z"/>
</g>
</svg>
