<?xml version="1.0" encoding="utf-8"?>
<!-- Generator: Adobe Illustrator 21.1.0, SVG Export Plug-In . SVG Version: 6.00 Build 0)  -->
<svg version="1.1" id="Calque_1" xmlns="http://www.w3.org/2000/svg" xmlns:xlink="http://www.w3.org/1999/xlink" x="0px" y="0px"
	 viewBox="0 0 500 500" style="enable-background:new 0 0 500 500;" xml:space="preserve">
<style type="text/css">
	.st0{fill:#16A085;}
	.st1{fill:#727272;}
</style>
<g id="surface1_1_">
	<path class="st0" d="M30.9,159.9c-16.7,0-30.2,13.5-30.2,30.2v119.7c0,16.7,13.5,30.2,30.2,30.2h44.6c-3.3-7.8-4.7-16.2-4.7-22.8
		V182.7c0-6.5,1.6-14.8,5-22.8H30.9z"/>
</g>
<path class="st1" d="M242.2,30.6c-9.1,0-18.5,4.4-26.2,12.2L100.1,158.4c-6.4,5.6-9.3,16.6-9.3,24.3v134.6c0,7.6,3.2,18.5,9,23.7
	l115.6,115.3c10.5,10.7,20.2,13.1,26.5,13.1c16.6,0,28.4-15.2,28.4-36.8v-369C270.3,40.9,255.7,30.6,242.2,30.6z"/>
<path class="st0" d="M347.2,121.6c-4.4,0.5-8,4-8.6,8.5c-0.7,4.4,1.7,8.7,5.8,10.6c38.9,21,65.4,62,65.4,109.4
	c0,47.3-26.4,88.4-65.1,109.4c-4.8,2.6-6.6,8.7-3.9,13.6c2.6,4.8,8.7,6.6,13.6,3.9c45-24.4,75.4-72.1,75.4-126.8
	c0-54.9-30.5-102.8-75.7-127.2c-1.8-1-3.9-1.4-5.9-1.2C347.9,121.6,347.5,121.6,347.2,121.6z"/>
<path class="st0" d="M305.5,184.2c-4.8,0.6-8.5,4.6-8.7,9.4c-0.2,4.8,3,9.2,7.8,10.2c20.4,5.3,35.5,24,35.5,46.1
	s-15.1,40.8-35.5,46.1c-5.3,1.4-8.5,6.8-7.2,12.2s6.8,8.5,12.2,7.2c29.1-7.6,50.5-34.2,50.5-65.4s-21.5-57.9-50.5-65.4
	C308.2,184.2,306.8,184.1,305.5,184.2z"/>
</svg>
