<?xml version="1.0" encoding="utf-8"?>
<!-- Generator: Adobe Illustrator 21.1.0, SVG Export Plug-In . SVG Version: 6.00 Build 0)  -->
<svg version="1.1" id="Calque_1" xmlns="http://www.w3.org/2000/svg" xmlns:xlink="http://www.w3.org/1999/xlink" x="0px" y="0px"
	 viewBox="0 0 500 500" style="enable-background:new 0 0 500 500;" xml:space="preserve">
<style type="text/css">
	.st0{fill:#16A085;}
	.st1{fill:#727272;}
</style>
<g id="surface1">
	<path class="st0" d="M30.3,159.8C13.5,159.8,0,173.4,0,190.1v119.8c0,16.7,13.5,30.3,30.3,30.3h44.6c-3.3-7.8-4.7-16.2-4.7-22.8
		V182.6c0-6.6,1.6-14.9,5-22.8H30.3z"/>
</g>
<path class="st0" d="M318.9,189.9c-0.4,0.1-0.9,0.2-1.2,0.3c-3.7,0.7-6.7,3.4-7.8,7c-1.1,3.7,0,7.6,2.8,10.1l42.7,42.7l-42.7,42.7
	c-4,4-4,10.4,0,14.4c4,4,10.4,4,14.4,0l42.7-42.7l42.7,42.7c4,4,10.4,4,14.4,0c4-4,4-10.4,0-14.4l-42.7-42.7l42.7-42.7
	c3.2-3,4.1-7.8,2.1-11.7c-1.9-4-6.2-6.2-10.6-5.5c-2.2,0.2-4.3,1.2-5.9,2.8l-42.7,42.7L327,193C324.9,190.8,321.9,189.6,318.9,189.9
	z"/>
<path class="st1" d="M241.8,30.3c-9.1,0-18.5,4.4-26.2,12.2L99.5,158.3c-6.4,5.7-9.4,16.6-9.4,24.3v134.8c0,7.6,3.2,18.6,9,23.7
	L215,456.5c10.5,10.7,20.2,13.1,26.5,13.1c16.7,0,28.4-15.2,28.4-36.8V63.4C269.9,40.7,255.3,30.3,241.8,30.3z"/>
</svg>
