<?xml version="1.0" encoding="utf-8"?>
<!-- Generator: Adobe Illustrator 21.1.0, SVG Export Plug-In . SVG Version: 6.00 Build 0)  -->
<svg version="1.1" id="Calque_1" xmlns="http://www.w3.org/2000/svg" xmlns:xlink="http://www.w3.org/1999/xlink" x="0px" y="0px"
	 viewBox="0 0 512 512" style="enable-background:new 0 0 512 512;" xml:space="preserve">
<style type="text/css">
	.st0{fill:#16A085;}
</style>
<g id="surface1">
	<path class="st0" d="M445.8,281.6c0-7.7,2.6-17.9,2.6-25.6c0-7.7,0-17.9-2.6-25.6l53.8-38.4c5.1-2.6,7.7-10.2,2.6-17.9L451,84.5
		c-2.6-7.7-10.3-10.3-15.4-7.7L374.2,105c-12.8-10.3-30.8-20.5-46.1-25.6l-7.7-66.6c0-7.7-5.1-12.8-12.8-12.8H205.2
		c-7.7,0-12.8,5.1-12.8,12.8l-7.7,64c-17.9,7.7-33.3,15.4-46.1,25.6L77.2,76.8c-5.1-2.6-12.8,0-15.4,5.1l-51.2,89.6
		c-5.1,7.7-5.1,15.4,2.6,17.9l53.8,41c0,7.7-2.6,17.9-2.6,25.6c0,7.7,0,17.9,2.6,25.6L13.2,320c-5.1,2.6-7.7,10.2-2.6,17.9
		l51.2,89.6c2.6,7.7,10.3,10.3,15.4,7.7l61.4-28.2c12.8,10.3,30.8,20.5,46.1,25.6l7.7,66.6c0,7.7,5.1,12.8,12.8,12.8h102.4
		c7.7,0,12.8-5.1,12.8-12.8l7.7-66.6c17.9-7.6,33.3-15.3,46.1-25.6l61.4,28.2c5.1,2.6,12.8,0,15.4-5.1l51.2-89.6
		c2.5-5.1,2.5-12.8-2.6-17.9L445.8,281.6z M256.4,358.4C200.1,358.4,154,312.3,154,256s46.1-102.4,102.4-102.4
		S358.8,199.7,358.8,256S312.7,358.4,256.4,358.4z"/>
</g>
</svg>
